<svg width="47" height="22" viewBox="0 0 47 22" fill="none" xmlns="http://www.w3.org/2000/svg">
<path d="M46.6133 10.5766L46.6213 10.5445C46.6453 10.4723 46.6614 10.4081 46.6614 10.3279L46.6694 10.3197V10.3117V10.2957C46.6613 10.2235 46.6453 10.1593 46.6213 10.0951L46.6053 10.047L46.4849 9.8703L46.4607 9.85431L46.3885 9.79004L32.0466 0.111091C31.7497 -0.0895513 31.3565 -0.00932576 31.1558 0.279599C30.9632 0.576549 31.0434 0.969777 31.3323 1.17042L43.9406 9.67765H0.634061C0.28093 9.67765 0 9.96657 0 10.3197C0 10.6648 0.28093 10.9538 0.634061 10.9538H44.1173L31.8219 20.2074C31.541 20.4161 31.4848 20.8174 31.6935 21.0983C31.8219 21.2668 32.0145 21.3551 32.2071 21.3551C32.3356 21.3551 32.4719 21.3149 32.5843 21.2266L46.4126 10.8254L46.4607 10.7853L46.4929 10.7531L46.6133 10.5766Z" fill="#272525"/>
</svg>
