<svg width="100" height="100" viewBox="0 0 100 100" fill="none" xmlns="http://www.w3.org/2000/svg">
<path d="M18.9973 40.4933L49.5986 77.7377L80.2332 40.7692L65.6885 20.6184H34.1711L18.9973 40.4933ZM49.5876 80C49.3228 79.9892 49.0801 79.8784 48.9145 79.6801L17.1985 41.0672C16.9447 40.7582 16.9337 40.3057 17.1875 39.9857L33.0344 19.2169C33.2 18.9962 33.4648 18.8638 33.7296 18.8638H66.1409C66.4167 18.8638 66.6816 19.0072 66.8472 19.2279L82.054 40.2947C82.2968 40.6147 82.2748 41.0561 82.021 41.3651L50.2608 79.6801C50.0952 79.8784 49.8525 80 49.5876 80Z" fill="#AB8A62"/>
<path d="M49.5877 80C49.2456 80 48.9145 79.7904 48.7821 79.4482L32.9241 40.8464C32.8027 40.5595 32.8468 40.2285 33.0345 39.9857L48.8925 19.2169C49.1904 18.8307 49.7421 18.7534 50.1174 19.0514C50.5036 19.3383 50.5808 19.8901 50.2829 20.2763L34.734 40.6478L50.4043 78.7861C50.5809 79.2275 50.3712 79.7461 49.9187 79.9336C49.8194 79.978 49.698 80 49.5877 80Z" fill="#AB8A62"/>
<path d="M49.6095 80C49.4992 80 49.3888 79.978 49.2784 79.9336C48.837 79.7461 48.6163 79.2275 48.8039 78.7861L64.4632 40.6478L48.9143 20.2763C48.6274 19.8901 48.6936 19.3383 49.0798 19.0514C49.4661 18.7534 50.0178 18.8307 50.3157 19.2169L66.1627 39.9857C66.3503 40.2285 66.3944 40.5595 66.2841 40.8464L50.4261 79.4482C50.2826 79.7904 49.9626 80 49.6095 80Z" fill="#AB8A62"/>
<path d="M81.3478 41.3872H17.8828C17.3973 41.3872 17 41.001 17 40.5154C17 40.0298 17.3973 39.6326 17.8828 39.6326H81.3478C81.8334 39.6326 82.2197 40.0298 82.2197 40.5154C82.2197 41.001 81.8334 41.3872 81.3478 41.3872Z" fill="#AB8A62"/>
</svg>
