<svg width="100" height="100" viewBox="0 0 100 100" fill="none" xmlns="http://www.w3.org/2000/svg">
<rect width="100" height="100" rx="10" fill="#AB8961"/>
<mask id="mask0_18_2" style="mask-type:luminance" maskUnits="userSpaceOnUse" x="15" y="15" width="70" height="70">
<path d="M85 15H15V85H85V15Z" fill="white"/>
</mask>
<g mask="url(#mask0_18_2)">
<path d="M85 50C85 30.668 69.332 15 50 15C30.668 15 15 30.668 15 50C15 66.4062 26.3066 80.1875 41.5508 83.9746V60.6914H34.332V50H41.5508V45.3926C41.5508 33.4844 46.9375 27.9609 58.6406 27.9609C60.8555 27.9609 64.6836 28.3984 66.2559 28.8359V38.5156C65.4355 38.4336 64 38.3789 62.209 38.3789C56.4668 38.3789 54.252 40.5527 54.252 46.1992V50H65.6816L63.7129 60.6914H54.2383V84.7402C71.5742 82.6484 85 67.8965 85 50Z" fill="white"/>
</g>
</svg>
