<svg width="100" height="100" viewBox="0 0 100 100" fill="none" xmlns="http://www.w3.org/2000/svg">
<path d="M49.4999 17.8846C31.5138 17.8846 16.8728 32.5138 16.8728 50.5C16.8728 68.4862 31.5138 83.1272 49.4999 83.1272C67.4861 83.1272 82.1271 68.4862 82.1271 50.5C82.1271 32.5138 67.4861 17.8846 49.4999 17.8846ZM49.4999 85C30.4772 85 15 69.5227 15 50.5C15 31.4773 30.4772 16.0118 49.4999 16.0118C68.5227 16.0118 84 31.4773 84 50.5C84 69.5227 68.5227 85 49.4999 85Z" fill="#AB8A62"/>
<path d="M49.3825 84.6587C48.9349 84.6587 48.5344 84.3289 48.4637 83.8813C48.3695 83.363 48.7111 82.8801 49.2294 82.7976C62.504 80.5126 72.516 66.6372 72.516 50.5003C72.516 34.6225 63.0813 21.1004 50.0657 18.3678C49.5592 18.2618 49.2411 17.767 49.3472 17.2605C49.4532 16.7541 49.9479 16.4243 50.4544 16.5303C64.3298 19.4514 74.3889 33.7391 74.3889 50.5003C74.3889 67.5324 63.7055 82.2087 49.5357 84.6351L49.3825 84.6587Z" fill="#AB8A62"/>
<path d="M49.5001 84.6587L49.3353 84.6351C35.2361 82.2087 24.5999 67.5324 24.5999 50.5003C24.5999 33.7391 34.6236 19.4514 48.4283 16.5303C48.9465 16.4243 49.4295 16.7541 49.5355 17.2605C49.6415 17.767 49.3234 18.2618 48.817 18.3678C35.8721 21.1004 26.4726 34.6225 26.4726 50.5003C26.4726 66.6372 36.4375 80.5243 49.665 82.7976C50.1715 82.8801 50.5132 83.363 50.4189 83.8813C50.3483 84.3289 49.9477 84.6587 49.5001 84.6587Z" fill="#AB8A62"/>
<path d="M49.5002 38.0029C40.2892 38.0029 31.6201 34.4104 25.1064 27.8967L26.4374 26.5775C32.5977 32.7378 40.7839 36.1301 49.5002 36.1301C58.3343 36.1301 66.603 32.6554 72.7869 26.3537L74.1297 27.6612C67.5807 34.3279 58.8408 38.0029 49.5002 38.0029Z" fill="#AB8A62"/>
<path d="M26.2017 74.6582L24.8707 73.3508C31.4079 66.6722 40.1595 62.9972 49.5001 62.9972C58.7111 62.9972 67.3803 66.5898 73.894 73.1034L72.563 74.4226C66.4027 68.2623 58.2164 64.8701 49.5001 64.8701C40.666 64.8701 32.3856 68.3448 26.2017 74.6582Z" fill="#AB8A62"/>
<path d="M83.0577 51.4421H15.9423V49.5693H83.0577V51.4421Z" fill="#AB8A62"/>
<path d="M49.5002 85C48.9819 85 48.5579 84.576 48.5579 84.0577V16.9423C48.5579 16.424 48.9819 16.0118 49.5002 16.0118C50.0184 16.0118 50.4307 16.424 50.4307 16.9423V84.0577C50.4307 84.576 50.0184 85 49.5002 85Z" fill="#AB8A62"/>
</svg>
