<svg width="100" height="100" viewBox="0 0 100 100" fill="none" xmlns="http://www.w3.org/2000/svg">
<path d="M76.8263 63.5967H63.0753C62.5761 63.5967 62.1676 63.1995 62.1676 62.7003C62.1676 62.2011 62.5761 61.7927 63.0753 61.7927H76.8263C77.3255 61.7927 77.7339 62.2011 77.7339 62.7003C77.7339 63.1995 77.3255 63.5967 76.8263 63.5967Z" fill="#AB8A62"/>
<path d="M49.5056 82C49.3014 82 49.0971 81.9319 48.9383 81.7958C47.6335 80.752 17 55.848 17 35.5844C17 26.7233 21.5724 20.1314 28.9131 18.3955C36.6509 16.5688 44.8993 20.6533 49.483 28.4138C54.5205 19.5754 63.4383 17.034 69.9167 18.509C78.8232 20.5399 82 28.6634 82 35.5844C82 42.233 78.6757 50.0957 72.1179 58.9454C71.8229 59.3539 71.2556 59.4332 70.8585 59.1382C70.4614 58.8432 70.3705 58.276 70.6655 57.8789C76.9965 49.3468 80.196 41.8359 80.196 35.5844C80.196 27.5175 76.2023 21.7879 69.5196 20.2676C63.3589 18.872 54.7248 21.5382 50.3113 30.717C50.1638 31.0233 49.8573 31.2162 49.5056 31.2276C49.1766 31.2276 48.8476 31.0347 48.7001 30.7284C45.4325 24.2046 37.9784 18.1119 29.3329 20.1541C22.741 21.7085 18.8039 27.4835 18.8039 35.5844C18.8039 53.5334 45.2736 76.3839 49.5056 79.9237C51.2755 78.4488 56.9712 73.5701 62.9278 67.1257C63.2681 66.7626 63.8469 66.7399 64.2099 67.0803C64.573 67.4206 64.5955 67.988 64.2551 68.3624C57.0052 76.191 50.141 81.7391 50.0729 81.7958C49.9027 81.9319 49.6985 82 49.5056 82Z" fill="#AB8A62"/>
</svg>
