<svg width="100" height="100" viewBox="0 0 100 100" fill="none" xmlns="http://www.w3.org/2000/svg">
<g clip-path="url(#clip0_33_5954)">
<path d="M50.0156 32.0312C40.0781 32.0312 32.0625 40.0469 32.0625 49.9844C32.0625 59.9219 40.0781 67.9375 50.0156 67.9375C59.9531 67.9375 67.9688 59.9219 67.9688 49.9844C67.9688 40.0469 59.9531 32.0312 50.0156 32.0312ZM50.0156 61.6562C43.5938 61.6562 38.3437 56.4219 38.3437 49.9844C38.3437 43.5469 43.5781 38.3125 50.0156 38.3125C56.4531 38.3125 61.6875 43.5469 61.6875 49.9844C61.6875 56.4219 56.4375 61.6562 50.0156 61.6562ZM72.8906 31.2969C72.8906 33.625 71.0156 35.4844 68.7031 35.4844C66.375 35.4844 64.5156 33.6094 64.5156 31.2969C64.5156 28.9844 66.3906 27.1094 68.7031 27.1094C71.0156 27.1094 72.8906 28.9844 72.8906 31.2969ZM84.7813 35.5469C84.5156 29.9375 83.2344 24.9687 79.125 20.875C75.0313 16.7812 70.0625 15.5 64.4531 15.2187C58.6719 14.8906 41.3438 14.8906 35.5625 15.2187C29.9688 15.4844 25 16.7656 20.8906 20.8594C16.7813 24.9531 15.5156 29.9219 15.2344 35.5312C14.9063 41.3125 14.9063 58.6406 15.2344 64.4219C15.5 70.0312 16.7813 75 20.8906 79.0938C25 83.1875 29.9531 84.4687 35.5625 84.75C41.3438 85.0781 58.6719 85.0781 64.4531 84.75C70.0625 84.4844 75.0313 83.2031 79.125 79.0938C83.2188 75 84.5 70.0312 84.7813 64.4219C85.1094 58.6406 85.1094 41.3281 84.7813 35.5469ZM77.3125 70.625C76.0937 73.6875 73.7344 76.0469 70.6563 77.2812C66.0469 79.1094 55.1094 78.6875 50.0156 78.6875C44.9219 78.6875 33.9687 79.0937 29.375 77.2812C26.3125 76.0625 23.9531 73.7031 22.7188 70.625C20.8906 66.0156 21.3125 55.0781 21.3125 49.9844C21.3125 44.8906 20.9063 33.9375 22.7188 29.3437C23.9375 26.2812 26.2969 23.9219 29.375 22.6875C33.9844 20.8594 44.9219 21.2812 50.0156 21.2812C55.1094 21.2812 66.0625 20.875 70.6563 22.6875C73.7188 23.9062 76.0781 26.2656 77.3125 29.3437C79.1406 33.9531 78.7188 44.8906 78.7188 49.9844C78.7188 55.0781 79.1406 66.0312 77.3125 70.625Z" fill="white"/>
</g>
<defs>
<clipPath id="clip0_33_5954">
<rect width="70" height="80" fill="white" transform="translate(15 10)"/>
</clipPath>
</defs>
</svg>
