<svg width="582" height="581" viewBox="0 0 582 581" fill="none" xmlns="http://www.w3.org/2000/svg">
<path d="M417 476H434.5L462.272 520.937H463.317L491.5 476H508L470.11 535.806L470 578H455.479V535.806L417 476Z" fill="#8E6D45"/>
<path d="M530 476H516C515.833 498.333 515.5 546.8 515.5 562C515.5 577.2 527.833 580.333 534 580H582V566H534C530.8 566 530 563.333 530 562V476Z" fill="#8E6D45"/>
<path d="M124.5 178C124.5 168 130 167 132.5 167C139.5 167 141 174 141 178V557C141 575 126.333 579.167 119 579H86V563H118C124 563 125.167 558.667 125 556.5C124.833 434.5 124.5 188 124.5 178Z" fill="#8E6D45"/>
<path d="M89 257.5C113.4 255.9 118.833 235.833 118.5 226V167.5C118.5 158.7 127.833 156.5 132.5 156.5V150.5C117.3 150.5 113.167 161.833 113 167.5V217.5C112 239.5 66.5 256.423 39 219.5C17 189.961 23.1667 157.859 29 145.5C34.8333 135.667 53.7 112.5 82.5 98.5C111.3 84.5 128.167 50.6667 133 35.5V0C122.2 44.4 88.5 74.5 73 84C65.5 87.8333 45.8 99.6 27 116C3.5 136.5 1.49998 156.5 0.499982 178.5C-0.300018 196.1 5.16665 210.5 7.99998 215.5C26.5 248 58.5 259.5 89 257.5Z" fill="#8E6D45"/>
<path d="M175.421 257.5C151.021 255.9 145.588 235.833 145.921 226V167.5C145.921 158.7 136.588 156.5 131.921 156.5V150.5C147.121 150.5 151.254 161.833 151.421 167.5V217.5C152.421 239.5 197.921 256.423 225.421 219.5C247.421 189.961 241.254 157.859 235.421 145.5C229.588 135.667 210.721 112.5 181.921 98.5C153.121 84.5 136.254 50.6667 131.421 35.5V0C142.221 44.4 175.921 74.5 191.421 84C198.921 87.8333 218.621 99.6 237.421 116C260.921 136.5 262.921 156.5 263.921 178.5C264.721 196.1 259.254 210.5 256.421 215.5C237.921 248 205.921 259.5 175.421 257.5Z" fill="#8E6D45"/>
<path d="M163.5 578H149L190.5 476H204.5L244.5 578H229.5L197.982 495.724H197.178L163.5 578ZM173 539H224L222.5 552H170L173 539Z" fill="#8E6D45"/>
<path d="M345.5 578H331L372.5 476H386.5L426.5 578H411.5L379.982 495.724H379.178L345.5 578ZM355 539H406L404.5 552H352L355 539Z" fill="#8E6D45"/>
<path d="M322.5 493.5L324 480C258.8 462.4 245.5 506.333 247 530.5C252.2 587.3 300.5 583.167 324 574L322.5 560.5C274.9 582.5 262.667 548.333 262.5 528.5C264.1 481.7 303.167 485.667 322.5 493.5Z" fill="#8E6D45"/>
</svg>
