<svg width="582" height="581" viewBox="0 0 582 581" fill="none" xmlns="http://www.w3.org/2000/svg">
<path d="M416.579 476H434.079L461.851 520.937H462.896L491.079 476H507.579L469.689 535.806L469.579 578H455.058V535.806L416.579 476Z" fill="black"/>
<path d="M529.579 476H515.579C515.412 498.333 515.079 546.8 515.079 562C515.079 577.2 527.412 580.333 533.579 580H581.579V566H533.579C530.379 566 529.579 563.333 529.579 562V476Z" fill="black"/>
<path d="M124.079 178C124.079 168 129.579 167 132.079 167C139.079 167 140.579 174 140.579 178V557C140.579 575 125.912 579.167 118.579 579H85.5791V563H117.579C123.579 563 124.746 558.667 124.579 556.5C124.412 434.5 124.079 188 124.079 178Z" fill="black"/>
<path d="M88.5791 257.5C112.979 255.9 118.412 235.833 118.079 226V167.5C118.079 158.7 127.412 156.5 132.079 156.5V150.5C116.879 150.5 112.746 161.833 112.579 167.5V217.5C111.579 239.5 66.0791 256.423 38.5791 219.5C16.5791 189.961 22.7458 157.859 28.5791 145.5C34.4124 135.667 53.2791 112.5 82.0791 98.5C110.879 84.5 127.746 50.6667 132.579 35.5V0C121.779 44.4 88.0791 74.5 72.5791 84C65.0791 87.8333 45.3791 99.6 26.5791 116C3.0791 136.5 1.07908 156.5 0.0790836 178.5C-0.720916 196.1 4.74575 210.5 7.57908 215.5C26.0791 248 58.0791 259.5 88.5791 257.5Z" fill="black"/>
<path d="M175 257.5C150.6 255.9 145.167 235.833 145.5 226V167.5C145.5 158.7 136.167 156.5 131.5 156.5V150.5C146.7 150.5 150.833 161.833 151 167.5V217.5C152 239.5 197.5 256.423 225 219.5C247 189.961 240.833 157.859 235 145.5C229.167 135.667 210.3 112.5 181.5 98.5C152.7 84.5 135.833 50.6667 131 35.5V0C141.8 44.4 175.5 74.5 191 84C198.5 87.8333 218.2 99.6 237 116C260.5 136.5 262.5 156.5 263.5 178.5C264.3 196.1 258.833 210.5 256 215.5C237.5 248 205.5 259.5 175 257.5Z" fill="black"/>
<path d="M163.079 578H148.579L190.079 476H204.079L244.079 578H229.079L197.561 495.724H196.757L163.079 578ZM172.579 539H223.579L222.079 552H169.579L172.579 539Z" fill="black"/>
<path d="M345.079 578H330.579L372.079 476H386.079L426.079 578H411.079L379.561 495.724H378.757L345.079 578ZM354.579 539H405.579L404.079 552H351.579L354.579 539Z" fill="black"/>
<path d="M322.079 493.5L323.579 480C258.379 462.4 245.079 506.333 246.579 530.5C251.779 587.3 300.079 583.167 323.579 574L322.079 560.5C274.479 582.5 262.246 548.333 262.079 528.5C263.679 481.7 302.746 485.667 322.079 493.5Z" fill="black"/>
</svg>
