<svg width="100" height="100" viewBox="0 0 100 100" fill="none" xmlns="http://www.w3.org/2000/svg">
<path d="M17.8669 74.133H82.6479V27.2705H17.8669V74.133ZM83.5872 76H16.9394C16.4227 76 16 75.5773 16 75.0606V26.3429C16 25.8262 16.4227 25.4035 16.9394 25.4035H83.5872C84.1039 25.4035 84.5149 25.8262 84.5149 26.3429V75.0606C84.5149 75.5773 84.1039 76 83.5872 76Z" fill="#AB8A62"/>
<path d="M50.2633 58.0579C50.0402 58.0579 49.8055 57.9757 49.6294 57.8113L16.3053 27.0236C15.9296 26.6714 15.9061 26.0842 16.2583 25.7085C16.5988 25.321 17.1977 25.2975 17.5734 25.6498L50.2633 55.8504L82.9532 25.6498C83.3289 25.2975 83.9162 25.321 84.2684 25.7085C84.6207 26.0842 84.5972 26.6714 84.2214 27.0236L50.8974 57.8113C50.7213 57.9757 50.4864 58.0579 50.2633 58.0579Z" fill="#AB8A62"/>
</svg>
