<svg width="100" height="100" viewBox="0 0 100 100" fill="none" xmlns="http://www.w3.org/2000/svg">
<path d="M81.3153 80.3725L61.7008 67.1891V18.2303L81.3153 31.4137V80.3725ZM40.2632 31.4137L59.8765 18.2303V67.1891L40.2632 80.3725V31.4137ZM18.8243 18.2303L38.4388 31.4137V80.3725L18.8243 67.1891V18.2303ZM82.7358 30.1745L61.2981 15.7635L61.2568 15.7405L61.2178 15.7061L61.1444 15.6831L61.0285 15.6372L60.9103 15.6257L60.7887 15.6143L60.6682 15.6257L60.5488 15.6372L60.4341 15.6831L60.3595 15.7061L60.3217 15.7405L60.2804 15.7635L39.351 29.8303L18.4216 15.7635C18.1405 15.5684 17.7802 15.5569 17.483 15.7061C17.1859 15.8667 17 16.1765 17 16.5207V67.6709C17 67.9807 17.1514 68.2561 17.4039 68.4283L38.8415 82.8393L38.8806 82.8623L38.9218 82.8967L39.0331 82.9311L39.1077 82.9656L39.351 83L39.5942 82.9656L39.6676 82.9311L39.7801 82.8967L39.8203 82.8623L39.8593 82.8393L60.7887 68.7725L81.7192 82.8393C81.8718 82.9426 82.0496 83 82.2275 83C82.3744 83 82.5224 82.9655 82.6566 82.8967C82.9538 82.7361 83.1396 82.4263 83.1396 82.0821V30.9319C83.1396 30.6221 82.9882 30.3466 82.7358 30.1745Z" fill="#AB8A62"/>
</svg>
