<svg width="100" height="100" viewBox="0 0 100 100" fill="none" xmlns="http://www.w3.org/2000/svg">
<path d="M43.3377 17.9205C35.0504 17.9205 28.3147 24.6561 28.3147 32.9314C28.3147 41.2186 35.0504 47.9543 43.3377 47.9543C51.6129 47.9543 58.3486 41.2186 58.3486 32.9314C58.3486 24.6561 51.6129 17.9205 43.3377 17.9205ZM43.3377 49.8667C33.9919 49.8667 26.4023 42.265 26.4023 32.9314C26.4023 23.5977 33.9919 16.0081 43.3377 16.0081C52.6713 16.0081 60.2609 23.5977 60.2609 32.9314C60.2609 42.265 52.6713 49.8667 43.3377 49.8667Z" fill="#AB8A62"/>
<path d="M23.9245 83.0872H63.5565V69.6883C63.5565 58.7553 54.668 49.8666 43.7346 49.8666C32.8133 49.8666 23.9245 58.7553 23.9245 69.6883V83.0872ZM64.5187 85H22.9622C22.433 85 22 84.5672 22 84.0378V69.6883C22 57.6968 31.7548 47.9542 43.7346 47.9542C55.7265 47.9542 65.469 57.6968 65.469 69.6883V84.0378C65.469 84.5672 65.048 85 64.5187 85Z" fill="#AB8A62"/>
<path d="M58.5649 53.4629C54.4874 53.4629 50.6384 51.8632 47.7517 48.9765C47.3788 48.6036 47.3788 48.0022 47.7517 47.6293C48.1246 47.2565 48.7381 47.2565 49.1109 47.6293C51.6368 50.1552 54.9926 51.5504 58.5649 51.5504C65.95 51.5504 71.952 45.5365 71.952 38.1633C71.952 30.7902 65.95 24.7763 58.5649 24.7763C57.9033 24.7763 57.254 24.8244 56.6044 24.9206C56.0872 25.0048 55.5941 24.6319 55.5219 24.1147C55.4498 23.5975 55.8105 23.1044 56.3277 23.0322C57.0614 22.924 57.8191 22.8638 58.5649 22.8638C67.0085 22.8638 73.8645 29.7318 73.8645 38.1633C73.8645 46.5949 67.0085 53.4629 58.5649 53.4629Z" fill="#AB8A62"/>
<path d="M77.5932 85H64.5187C63.9894 85 63.5564 84.5672 63.5564 84.0378C63.5564 83.5087 63.9894 83.0872 64.5187 83.0872H76.6309V71.1556C76.6309 61.4012 68.8488 53.463 59.2745 53.463C58.2882 53.463 57.3019 53.5352 56.3517 53.7036C55.8224 53.7878 55.3294 53.451 55.2452 52.9217C55.149 52.4045 55.5098 51.9114 56.027 51.8272C57.0855 51.6348 58.18 51.5506 59.2745 51.5506C69.8952 51.5506 78.5432 60.343 78.5432 71.1556V84.0378C78.5432 84.5672 78.1224 85 77.5932 85Z" fill="#AB8A62"/>
</svg>
