<svg width="100" height="100" viewBox="0 0 100 100" fill="none" xmlns="http://www.w3.org/2000/svg">
<path d="M69.9113 71.0456L58.8889 60.0113L61.0815 57.8187L72.1757 68.7812L69.9113 71.0456ZM28.4096 29.6997L30.8897 27.2195L41.6604 38.0023L39.1804 40.4825L28.4096 29.6997ZM61.7404 55.8061C61.369 55.4346 60.7699 55.4346 60.3985 55.8061L55.091 61.1134L38.174 44.1846L43.6852 38.6734C44.0566 38.302 44.0566 37.7029 43.6852 37.3195L31.5606 25.195C31.1892 24.8236 30.5901 24.8236 30.2187 25.195L15.2786 40.135C14.9071 40.5064 14.9071 41.1054 15.2786 41.4768L50.9815 77.1797C51.3529 77.5511 51.952 77.5511 52.3234 77.1797C52.6948 76.8083 52.6948 76.2094 52.3234 75.8379L17.3034 40.8059L27.0558 31.0534L37.8386 41.8242L36.1492 43.5135C35.7778 43.8849 35.7778 44.4841 36.1492 44.8555L54.42 63.1263C54.7914 63.4977 55.4024 63.4977 55.7739 63.1263L57.5351 61.365L68.5695 72.3874L58.5894 82.3675C58.2179 82.7389 58.2179 83.3381 58.5894 83.7214C58.9608 84.0929 59.5599 84.0929 59.9433 83.7214L74.2005 69.4521C74.5719 69.0807 74.5718 68.4817 74.1885 68.1103L61.7404 55.8061Z" fill="#AB8A62"/>
<path d="M72.0199 44.6997C72.1037 45.2029 72.559 45.5624 73.0742 45.5025C73.6013 45.4306 73.9848 44.9392 73.9009 44.4121C73.1102 39.6676 70.9056 35.3785 67.4791 31.952C63.9927 28.4655 59.6437 26.2493 54.8273 25.4945C54.3002 25.4106 53.809 25.794 53.7491 26.3331C53.6892 26.8483 54.0486 27.2915 54.5637 27.3754C58.9607 28.0823 62.9384 30.119 66.1253 33.294C69.2643 36.433 71.289 40.3626 72.0199 44.6997Z" fill="#AB8A62"/>
<path d="M55.7263 34.0488C55.259 33.7972 54.672 34.001 54.4324 34.4923C54.2167 34.9595 54.4084 35.4987 54.8636 35.7383C56.7327 36.7207 58.4339 37.9786 59.9315 39.4882C61.4052 40.9618 62.6392 42.6153 63.6097 44.4244C63.8613 44.8797 64.4004 45.0714 64.8677 44.8557C65.3469 44.6161 65.5626 44.0289 65.311 43.5617C64.2447 41.5729 62.8908 39.7519 61.2853 38.1464C59.632 36.4931 57.763 35.1151 55.7263 34.0488Z" fill="#AB8A62"/>
<path d="M49.1602 14.8073C48.6331 14.8313 48.2257 15.3105 48.2736 15.8376C48.3215 16.3528 48.7649 16.7364 49.28 16.7004C58.1099 16.2332 66.7002 19.5038 72.9782 25.7698C79.34 32.1317 82.6108 40.8537 82.0237 49.8034C81.9878 50.3186 82.3591 50.7738 82.8743 50.8217C83.4134 50.8697 83.8926 50.4745 83.9286 49.9354C84.5516 40.4345 81.0772 31.1853 74.32 24.4281C67.6587 17.7667 58.5412 14.2922 49.1602 14.8073Z" fill="#AB8A62"/>
</svg>
