<svg width="100" height="100" viewBox="0 0 100 100" fill="none" xmlns="http://www.w3.org/2000/svg">
<path d="M80.1254 67.8157H79.4636C79.094 51.8497 65.9951 38.9681 49.938 38.9681C33.8783 38.9681 20.7807 51.8497 20.4111 67.8157H20.1992H13.2176C13.6918 48.0722 29.8875 32.1605 49.7424 32.1605C69.5987 32.1605 85.7957 48.0722 86.2685 67.8157H80.1254ZM68.8051 67.8157H68.4641C67.9505 57.5839 59.4905 49.4174 49.1323 49.4174C38.7755 49.4174 30.3155 57.5839 29.8019 67.8157H29.6905H22.5716C22.9426 53.0319 35.0713 41.1286 49.938 41.1286C64.8034 41.1286 76.9322 53.0319 77.3031 67.8157H68.8051ZM59.0774 67.8157H59.0122C58.4986 62.7881 54.2428 58.8611 49.0875 58.8611C43.9308 58.8611 39.675 62.7881 39.1627 67.8157H39.1505H31.9624C32.4733 58.7796 39.9671 51.5779 49.1323 51.5779C58.2988 51.5779 65.7926 58.7796 66.3035 67.8157H59.0774ZM49.7424 30C28.3996 30 11.0354 47.3656 11.0354 68.6989L11.0367 68.7125L11 68.9028C11 69.1881 11.1196 69.4463 11.3085 69.6501C11.5068 69.8539 11.7827 69.9762 12.0912 69.9762H40.4957C41.7757 69.9762 41.1452 70.3431 41.3042 68.1961C41.6344 64.1877 44.9947 61.0217 49.0875 61.0217C53.2821 61.0217 56.7049 64.3507 56.8856 68.4951H56.8883C56.9454 70.017 56.7213 70.0034 57.917 69.9762H87.2021C87.4752 69.9762 87.7157 69.8675 87.9086 69.718L88.0812 69.5006C88.304 69.3104 88.4521 69.025 88.4521 68.6989C88.4521 47.3656 71.0866 30 49.7424 30Z" fill="#AB8A62"/>
</svg>
