<svg width="100" height="100" viewBox="0 0 100 100" fill="none" xmlns="http://www.w3.org/2000/svg">
<path d="M50.0399 83C49.1272 83 48.2033 82.9662 47.2793 82.8873C38.4907 82.1549 30.5135 78.0536 24.8235 71.327C19.1222 64.6003 16.3841 56.0596 17.1165 47.271C17.8489 38.4937 21.9502 30.5163 28.6769 24.8149C35.4035 19.1249 43.9442 16.3758 52.7328 17.1194C61.5102 17.8405 69.4876 21.9531 75.1889 28.6798C80.879 35.4064 83.6168 43.9472 82.8844 52.7245C82.3549 59.1469 79.9887 65.1975 76.0564 70.2566C75.7522 70.6509 75.1889 70.7186 74.7945 70.4144C74.4115 70.1101 74.3438 69.5466 74.648 69.1523C78.3662 64.3749 80.5973 58.6511 81.1043 52.5779C81.7916 44.2738 79.2 36.1951 73.8141 29.829C68.4283 23.4741 60.8906 19.5869 52.5865 18.8995C44.2711 18.2122 36.1923 20.8039 29.8375 26.1897C23.4714 31.5755 19.5954 39.1133 18.9081 47.4174C18.2095 55.7327 20.801 63.8115 26.1868 70.1664C31.5726 76.5325 39.1218 80.4084 47.4259 81.0958C55.5047 81.7718 63.4143 79.3156 69.7015 74.2002C70.0959 73.8847 70.6594 73.941 70.9636 74.3241C71.2791 74.7072 71.2228 75.2705 70.8397 75.5859C64.913 80.4197 57.6116 83 50.0399 83Z" fill="#AB8A62"/>
<path d="M49.9949 43.9811C48.5752 43.9811 47.2118 44.477 46.1189 45.4122C44.8907 46.4488 44.1357 47.9022 44.0005 49.5022C43.7301 52.8148 46.1977 55.7219 49.5103 56.0036C51.099 56.1275 52.6652 55.6318 53.8934 54.5952C55.1215 53.5586 55.8651 52.105 56.0003 50.4938C56.2707 47.1924 53.8033 44.2742 50.5019 44.0038C50.3329 43.9925 50.1639 43.9811 49.9949 43.9811ZM50.0061 57.8064C49.792 57.8064 49.5779 57.8063 49.3525 57.7837C45.0709 57.4232 41.8598 53.6487 42.2204 49.3558C42.5697 45.0629 46.3329 41.8404 50.6483 42.2122C54.9412 42.5728 58.1412 46.3587 57.7807 50.6516C57.4426 54.7191 54.0286 57.8064 50.0061 57.8064Z" fill="#AB8A62"/>
<path d="M35.5725 49.7046L35.5047 49.6934C35.0089 49.6596 34.6372 49.2201 34.6823 48.7356C35.0203 44.6343 36.9356 40.9273 40.068 38.2681C43.2003 35.6203 47.1665 34.3357 51.2679 34.685C51.7636 34.7188 52.1355 35.1582 52.0905 35.6427C52.0454 36.1385 51.6173 36.5217 51.1215 36.4654C43.6737 35.8795 37.0823 41.4117 36.4739 48.882C36.4288 49.3439 36.0344 49.7046 35.5725 49.7046Z" fill="#AB8A62"/>
<path d="M27.0095 48.9949L26.9417 48.9836C26.4459 48.9498 26.0742 48.5104 26.1193 48.0259C27.2122 34.8543 38.7951 25.0291 51.9893 26.1108C52.4738 26.1558 52.8455 26.5952 52.8004 27.0797C52.7666 27.5755 52.3273 27.9361 51.8315 27.9023C39.6514 26.8883 28.9135 35.9811 27.8994 48.1725C27.8656 48.6344 27.4714 48.9949 27.0095 48.9949Z" fill="#AB8A62"/>
<path d="M70.5919 57.2087C70.0962 57.2087 69.6906 56.8143 69.6906 56.3186V54.5836C69.6906 54.0878 70.0962 53.6822 70.5919 53.6822C71.0877 53.6822 71.4821 54.0878 71.4821 54.5836V56.3186C71.4821 56.8143 71.0877 57.2087 70.5919 57.2087Z" fill="#AB8A62"/>
<path d="M70.5919 81.8733C70.0962 81.8733 69.6906 81.4677 69.6906 80.9719V65.5694C69.6906 65.0736 70.0962 64.6792 70.5919 64.6792C71.0877 64.6792 71.4821 65.0736 71.4821 65.5694V80.9719C71.4821 81.4677 71.0877 81.8733 70.5919 81.8733Z" fill="#AB8A62"/>
<path d="M69.0705 57.6936C68.8903 57.6936 68.7437 57.8287 68.7437 58.0089V64.3526C68.7437 64.5329 68.8903 64.6794 69.0705 64.6794H72.1127C72.2818 64.6794 72.4283 64.5329 72.4283 64.3526V58.0089C72.4283 57.8287 72.2818 57.6936 72.1127 57.6936H69.0705ZM72.1127 66.4709H69.0705C67.8987 66.4709 66.9524 65.5244 66.9524 64.3526V58.0089C66.9524 56.8484 67.8987 55.902 69.0705 55.902H72.1127C73.2733 55.902 74.2199 56.8484 74.2199 58.0089V64.3526C74.2199 65.5244 73.2733 66.4709 72.1127 66.4709Z" fill="#AB8A62"/>
</svg>
