<svg width="100" height="100" viewBox="0 0 100 100" fill="none" xmlns="http://www.w3.org/2000/svg">
<path d="M36.2139 64.5625C35.9566 64.5625 35.6992 64.4645 35.5031 64.2562C35.1355 63.8763 35.1478 63.2513 35.54 62.8837C39.3264 59.2811 44.2892 57.2959 49.5216 57.2959C54.7295 57.2959 59.6799 59.2688 63.4541 62.8347C63.8462 63.2146 63.8708 63.8272 63.5032 64.2194C63.1233 64.6115 62.5105 64.6238 62.1184 64.2562C58.6996 61.0211 54.2271 59.2443 49.5216 59.2443C44.7916 59.2443 40.3067 61.0456 36.8879 64.2929C36.6918 64.4767 36.459 64.5625 36.2139 64.5625Z" fill="#AB8A62"/>
<path d="M27.2558 54.8088C26.9985 54.8088 26.7413 54.7108 26.5452 54.5025C26.1776 54.1104 26.1897 53.4977 26.5818 53.13C32.8068 47.2114 40.9557 43.9642 49.5334 43.9642C58.0866 43.9642 66.2108 47.1869 72.4113 53.0565C72.8034 53.4241 72.828 54.0368 72.4604 54.429C72.0805 54.8211 71.4679 54.8456 71.0758 54.4657C65.2307 48.9515 57.5842 45.9125 49.5334 45.9125C41.4581 45.9125 33.7871 48.976 27.9298 54.5392C27.7337 54.723 27.5009 54.8088 27.2558 54.8088Z" fill="#AB8A62"/>
<path d="M21.0677 44.5032C20.8103 44.5032 20.5532 44.3929 20.3571 44.1968C19.9895 43.8047 20.0016 43.192 20.3937 42.8244C28.2975 35.3127 38.652 31.171 49.5457 31.171C60.4026 31.171 70.7205 35.276 78.612 42.7264C78.9919 43.094 79.0163 43.7067 78.6487 44.0988C78.281 44.4909 77.6562 44.5154 77.2641 44.1478C69.7525 37.0406 59.9002 33.1193 49.5457 33.1193C39.1422 33.1193 29.2655 37.0651 21.7416 44.2336C21.5456 44.4051 21.3005 44.5032 21.0677 44.5032Z" fill="#AB8A62"/>
<path d="M14.9776 34.1733C14.7203 34.1733 14.4628 34.0631 14.2668 33.867C13.8992 33.4749 13.9115 32.8622 14.3036 32.4945C23.8494 23.4144 36.3727 18.4149 49.5579 18.4149C62.6818 18.4149 75.1564 23.3654 84.6899 32.372C85.082 32.7519 85.1066 33.3645 84.739 33.7567C84.3591 34.1488 83.7463 34.1611 83.3542 33.7935C74.1883 25.13 62.1794 20.3632 49.5579 20.3632C36.8752 20.3632 24.8298 25.1667 15.6393 33.9037C15.4555 34.0753 15.2227 34.1733 14.9776 34.1733Z" fill="#AB8A62"/>
<path d="M49.4964 70.9105C46.9843 70.9105 44.938 72.9691 44.938 75.4812C44.938 78.0055 46.9843 80.0519 49.4964 80.0519C52.0207 80.0519 54.0672 78.0055 54.0672 75.4812C54.0672 72.9691 52.0207 70.9105 49.4964 70.9105ZM49.4964 82.0002C45.906 82.0002 42.9896 79.0715 42.9896 75.4812C42.9896 71.8908 45.906 68.9621 49.4964 68.9621C53.0868 68.9621 56.0156 71.8908 56.0156 75.4812C56.0156 79.0715 53.0868 82.0002 49.4964 82.0002Z" fill="#AB8A62"/>
</svg>
