<svg width="100" height="100" viewBox="0 0 100 100" fill="none" xmlns="http://www.w3.org/2000/svg">
<path d="M81.8038 34.0817C81.0382 31.2014 78.79 28.941 75.9341 28.1754C70.757 26.7778 50 26.7778 50 26.7778C50 26.7778 29.2431 26.7778 24.066 28.1754C21.2101 28.941 18.9618 31.2014 18.1962 34.0817C16.8108 39.2952 16.8108 50.1598 16.8108 50.1598C16.8108 50.1598 16.8108 61.0244 18.1962 66.2379C18.9618 69.1181 21.2101 71.2813 24.066 72.0469C29.2431 73.4445 50 73.4445 50 73.4445C50 73.4445 70.757 73.4445 75.9341 72.0469C78.79 71.2813 81.0382 69.106 81.8038 66.2379C83.1893 61.0244 83.1893 50.1598 83.1893 50.1598C83.1893 50.1598 83.1893 39.2952 81.8038 34.0817ZM43.2188 60.0278V40.2917L60.5608 50.1598L43.2188 60.0278Z" fill="white"/>
</svg>
